<svg xmlns="http://www.w3.org/2000/svg" xmlns:xlink="http://www.w3.org/1999/xlink" version="1.1" width="595.276pt" height="595.276pt" viewBox="0 0 595.276 595.276">
<defs fill="#000000">
<clipPath id="clip_1" fill="#000000">
<path transform="matrix(1,0,0,-1,0,595.276)" d="M0 595.276H595.276V0H0Z" fill="#000000"/>
</clipPath>
</defs>
<g id="layer_1" data-name="">
<path transform="matrix(1,0,0,-1,0,595.276)" d="M280.187 338.779H270.25V286.986H280.187Z" fill="#0c2bd6" fill-rule="evenodd"/>
<path transform="matrix(1,0,0,-1,0,595.276)" d="M300.916 353.141H290.978V317.08799H300.916ZM290.978 286.986H300.916V308.677H290.978Z" fill="#0c2bd6" fill-rule="evenodd"/>
<path transform="matrix(1,0,0,-1,0,595.276)" d="M321.547 364.094H311.61V286.985H321.547Z" fill="#0c2bd6" fill-rule="evenodd"/>
<path transform="matrix(1,0,0,-1,216.9715,327.3793)" d="M0 0V-36.307H-8.386V-21.426H-22.857V-36.307H-31.244V0H-22.857V-14.063H-8.386V0Z" fill="#0c2bd6"/>
<path transform="matrix(1,0,0,-1,0,595.276)" d="M223.926 267.897H232.31299V231.59H223.926Z" fill="#0c2bd6"/>
<g clip-path="url(#clip_1)">
<path transform="matrix(1,0,0,-1,261.0506,338.016)" d="M0 0C-.103 .136-.461 .392-1.074 .768-1.687 1.143-2.455 1.534-3.375 1.943-4.296 2.353-5.302 2.711-6.393 3.018-7.483 3.324-8.574 3.478-9.665 3.478-12.665 3.478-14.165 2.472-14.165 .461-14.165-.153-14.004-.664-13.679-1.073-13.355-1.482-12.879-1.85-12.247-2.173-11.617-2.497-10.824-2.795-9.869-3.067-8.916-3.341-7.808-3.647-6.546-3.988-4.807-4.466-3.239-4.985-1.841-5.548-.443-6.11 .741-6.81 1.713-7.645 2.685-8.48 3.434-9.494 3.963-10.688 4.491-11.881 4.755-13.313 4.755-14.982 4.755-17.028 4.372-18.759 3.604-20.173 2.838-21.588 1.823-22.73 .562-23.599-.699-24.468-2.148-25.1-3.784-25.491-5.421-25.883-7.108-26.079-8.847-26.079-10.177-26.079-11.54-25.977-12.938-25.772-14.336-25.567-15.699-25.27-17.028-24.877-18.358-24.485-19.646-24.017-20.89-23.471-22.134-22.926-23.285-22.295-24.341-21.579L-20.659-14.267C-20.523-14.438-20.08-14.761-19.33-15.238-18.58-15.716-17.651-16.193-16.543-16.67-15.436-17.147-14.199-17.573-12.835-17.948-11.473-18.324-10.092-18.511-8.693-18.511-5.728-18.511-4.244-17.608-4.244-15.801-4.244-15.119-4.467-14.557-4.909-14.113-5.353-13.671-5.967-13.27-6.75-12.911-7.535-12.554-8.463-12.221-9.537-11.914-10.611-11.607-11.779-11.268-13.04-10.892-14.711-10.38-16.159-9.826-17.387-9.23-18.614-8.634-19.629-7.943-20.429-7.159-21.23-6.375-21.827-5.472-22.219-4.448-22.611-3.426-22.807-2.232-22.807-.869-22.807 1.04-22.449 2.728-21.733 4.193-21.018 5.659-20.046 6.895-18.818 7.9-17.591 8.906-16.168 9.665-14.549 10.177-12.93 10.688-11.217 10.943-9.409 10.943-8.148 10.943-6.903 10.823-5.677 10.586-4.449 10.347-3.273 10.04-2.148 9.665-1.023 9.289 .025 8.863 .997 8.387 1.969 7.909 2.863 7.432 3.682 6.955Z" fill="#0c2bd6"/>
<path transform="matrix(1,0,0,-1,287.5409,327.3842)" d="M0 0H-7.569L-20.819-36.3H-12.22L-8.13-22.39-3.79-9.56 .46-22.39 4.65-36.3H13.24Z" fill="#0c2bd6"/>
<path transform="matrix(1,0,0,-1,325.8397,352.6918)" d="M0 0C0 1.125-.324 2.079-.972 2.863-1.619 3.647-2.438 4.04-3.426 4.04H-13.091V-3.887H-3.784C-2.693-3.887-1.789-3.528-1.073-2.813-.357-2.097 0-1.159 0 0M-13.091 18.153V10.637H-4.857C-3.938 10.637-3.119 10.943-2.403 11.557-1.687 12.171-1.329 13.124-1.329 14.421-1.329 15.613-1.645 16.534-2.275 17.182-2.906 17.829-3.665 18.153-4.551 18.153ZM8.54-1.687C8.54-3.256 8.216-4.62 7.568-5.778 6.92-6.937 6.034-7.9 4.909-8.667 3.784-9.435 2.472-10.015 .972-10.406-.528-10.799-2.114-10.994-3.784-10.994H-21.477V25.313H-1.278C-.018 25.313 1.125 25.039 2.148 24.494 3.171 23.948 4.04 23.241 4.756 22.372 5.472 21.503 6.025 20.514 6.418 19.406 6.81 18.298 7.006 17.164 7.006 16.006 7.006 14.267 6.571 12.631 5.702 11.097 4.833 9.563 3.528 8.403 1.79 7.619 3.869 7.006 5.514 5.914 6.725 4.347 7.935 2.778 8.54 .768 8.54-1.687" fill="#0c2bd6"/>
<path transform="matrix(1,0,0,-1,354.9344,356.5268)" d="M0 0C1.433 0 2.642 .298 3.631 .895 4.619 1.491 5.421 2.283 6.034 3.272 6.648 4.261 7.083 5.395 7.339 6.673 7.594 7.951 7.722 9.256 7.722 10.585V29.147H16.108V10.585C16.108 8.062 15.793 5.71 15.162 3.528 14.531 1.346 13.56-.562 12.247-2.199 10.935-3.835 9.264-5.122 7.236-6.06 5.208-6.998 2.795-7.466 0-7.466-2.897-7.466-5.369-6.973-7.414-5.983-9.46-4.995-11.122-3.674-12.4-2.02-13.679-.367-14.616 1.551-15.213 3.732-15.81 5.914-16.107 8.198-16.107 10.585V29.147H-7.721V10.585C-7.721 9.187-7.585 7.857-7.312 6.597-7.039 5.335-6.596 4.21-5.982 3.222-5.369 2.232-4.576 1.448-3.604 .869-2.633 .289-1.432 0 0 0" fill="#0c2bd6"/>
<path transform="matrix(1,0,0,-1,377.5379,363.686)" d="M0 0V36.307H8.386V20.659L21.682 36.307H31.091L17.488 20.097 32.011 0H22.448L12.17 14.625 8.386 10.688V0Z" fill="#0c2bd6"/>
</g>
</g>
</svg>